<?xml version="1.0" encoding="utf-8" ?>
<svg baseProfile="full" height="300mm" version="1.1" viewBox="0,0,200,300" width="200mm" xmlns="http://www.w3.org/2000/svg" xmlns:ev="http://www.w3.org/2001/xml-events" xmlns:xlink="http://www.w3.org/1999/xlink"><defs /><rect fill="#222222" height="300" width="200" x="0" y="0" /><text fill="#FFFFFF" style="font-size:12px; font-family:Arial; font-weight:bold;" x="10" y="20">3km热身跑</text><text fill="#FFFFFF" style="font-size:4px; font-family:Arial" x="10" y="280">ATHLETE</text><text fill="#FFFFFF" style="font-size:9px; font-family:Arial" x="10" y="290">于峰</text><text fill="#FFFFFF" style="font-size:4px; font-family:Arial" x="65" y="280">SPECIAL TRACKS</text><rect fill="yellow" height="2.6" width="2.6" x="65" y="283" /><text fill="#FFFFFF" style="font-size:3px; font-family:Arial" x="70" y="285.5">Over 3.0 km</text><rect fill="red" height="2.6" width="2.6" x="65" y="287" /><text fill="#FFFFFF" style="font-size:3px; font-family:Arial" x="70" y="289.5">Over 5.0 km</text><text fill="#FFFFFF" style="font-size:4px; font-family:Arial" x="120" y="280">STATISTICS</text><text fill="#FFFFFF" style="font-size:3px; font-family:Arial" x="120" y="285">Number: 3</text><text fill="#FFFFFF" style="font-size:3px; font-family:Arial" x="120" y="290">Weekly: 1.5</text><text fill="#FFFFFF" style="font-size:3px; font-family:Arial" x="141" y="285">Total: 16.4 km</text><text fill="#FFFFFF" style="font-size:3px; font-family:Arial" x="141" y="290">Avg: 5.5 km</text><text fill="#FFFFFF" style="font-size:3px; font-family:Arial" x="167" y="285">Min: 5.0 km</text><text fill="#FFFFFF" style="font-size:3px; font-family:Arial" x="167" y="290">Max: 5.9 km</text><polyline fill="none" points="95.33858110802248,61.29694881354226 93.98266241524834,61.508103697357 93.43383818247821,61.465872733067954 92.94958150642924,61.7192584258446 92.8850139498245,61.803720273746876 92.82044639310334,61.972643894871 92.94958150642924,62.35272167879157 93.53068951773457,63.577413335384335 93.78895974485204,64.37979468997219 94.37006775615737,67.29368705442175 94.43463531299494,69.19403569764108 94.62833798327483,70.20754982790095 94.59605420473963,71.68558485049289 94.78975687513594,73.45921682807966 94.98345954553224,74.30379963081214 94.98345954553224,75.19060889814864 95.0803108807886,75.52844027915853 95.43543244316243,75.86627126228996 95.5,76.45747452578507 95.46771622158121,76.75307570083532 95.1125946593238,77.38650576461805 95.0803108807886,77.5976488084998 95.43543244316243,79.5823858269141 95.46771622158121,80.08912499342114 95.40314866474364,80.25803785011522 95.24172977288254,80.30026604866725 93.75667596654966,80.68031955658807 93.11100039852317,81.01814447433571 91.65823037060909,82.70726309771999 90.88341968914028,83.67850180403912 90.4314467915101,84.1007784770045 89.97947389411274,84.31191658045282 88.91410920675844,84.60750966431806 86.46054204867687,84.90310244378634 85.33060980460141,84.90310244378634 83.74870466312859,85.07201246666955 81.9085292944219,85.07201246666955 79.81008369859774,85.28314985558973 76.74312475090846,85.49428708909545 75.09665205248166,85.53651451709447 73.6115982462652,85.70542416724493 72.09426066162996,85.7898789550236 71.48086887202226,85.8743337179767 70.31865284964442,85.8743337179767 66.31546432839241,86.25437984344899 64.47528895980213,86.29660715957289 59.98784376250114,86.63442546565784 58.373654842493124,86.8455617048603 54.66102032677736,87.05669778891024 52.723993622814305,87.098924986989 51.49721004371531,87.2256065440888 50.044440015917644,87.2256065440888 48.494818652863614,87.3945152000233 47.55858907930087,87.3945152000233 44.491630131495185,87.73233221343253 37.87345555995125,89.21027697157115 34.515942606609315,90.26594713845407 32.99860502185766,90.8571207356581 31.96552411315497,91.06825386791024 29.641092068399303,91.40606655672309 28.41430848930031,91.65942581236595 23.765444400021806,93.0106713976129 23.087485053692944,93.0951240354334 21.602431247360073,93.22180294565624 20.472499003401026,93.22180294565624 18.05121562362183,93.13735034505953 17.17955360689666,93.0106713976129 16.695296930964105,92.84176604749518 16.59844559582416,92.71508696948877 16.372459147009067,92.1239171999623 16.114188919775188,91.19493367290124 15.40394579502754,89.50586500979261 15.242526903166436,88.6190999817336 14.919689118978567,88.23905698803719 14.5,87.94346764497459 14.532283778185956,87.73233221343253 15.88820247107651,86.46551636231015 16.695296930964105,85.8743337179767 17.88979673164431,84.77641986135859 19.14886408916209,83.88964021817083 19.891390992328525,83.50959096077713 21.69928258273285,82.96063003365998 23.11976883211173,82.3272122743947 25.121363092795946,81.60933712363476 28.188322040601633,79.66684241677285 29.027700278908014,78.73781856079586 29.544240733259358,78.27330550501938 29.83479473879561,77.89324880894856 30.4804703068221,77.17536256546737 31.384416101849638,75.90850010717986 31.707253886037506,75.61289806215791 32.28836189711001,74.89500611356925 33.063172578578815,73.67036276179715 34.1285372658167,72.48794353168341 35.968712634406984,70.96768307604361 36.77580709441099,70.24977950556786 37.970306895207614,69.32072515971959 39.87504982051905,68.18051798755187 40.39159027498681,67.75821788515896 41.6183738540858,66.99807613436133 43.52311677951366,66.06901125994045 44.45934635295998,65.73116874147672 45.23415703466162,65.56224733308773 46.33180550020188,65.09771294734674 48.88222399353981,64.25310304635786 51.20665603817906,63.2395678833127 51.9491829413455,62.81726050877478 52.17516939016059,62.77502973706578 53.175966520328075,62.77502973706578 53.56337186135352,62.6483373848896 54.49960143479984,62.18379828130128 55.85552012757398,61.7192584258446 57.79254683130421,60.95910067629302 58.95476285379846,60.36786547873635 60.14926265447866,59.94555387744913 61.44061379041523,59.2276227287075 63.66819449979812,58.34076412356808 64.70127540838439,57.66506048926385 65.15324830613099,57.79175504183513 65.28238341968972,57.749523530568695 65.28238341968972,57.83398654701887 66.08947787957732,57.411671216075774 66.57373455562629,56.94712363416329 66.89657233946491,56.77819705431466" stroke="red" stroke-linecap="round" stroke-linejoin="round" stroke-width="0.5"><title>2024-11-06 5.0km</title><desc>12842454626</desc></polyline><polyline fill="none" points="184.97674418613315,67.99670160803362 183.61627906979993,68.27049246244133 182.29069767449982,68.45301956430194 181.3488372093998,68.68117829065886 180.05813953478355,68.77244173415238 176.08139534888323,69.4569167039881 175.0348837209167,69.68507469154429 174.16279069765005,69.7763378394593 173.1511627906002,70.09575864582439 172.3488372093998,70.14139016284025 171.23255813971628,70.41517912325799 169.76744186040014,70.59770496259443 167.36046511633322,71.14528183560469 163.80232558143325,71.78412029866013 163.45348837214988,71.87538282864261 163.66279069776647,72.46858861958026 163.73255813959986,72.92489999416284 163.45348837214988,73.28994861015235 163.38372093031649,73.60936579661211 163.38372093031649,73.79188975543366 163.59302325593308,74.47635364398593 164.04651162796654,76.52973624315928 164.46511627919972,79.63259970294894 164.77906976744998,80.81898046657443 165.19767441856675,82.8723210603348 165.23255813959986,83.37424669286702 165.33720930234995,83.83054201732739 165.58139534876682,85.38194109738106 165.79069767449982,86.43141254401417 165.86046511633322,87.20710654760478 166.06976744206622,88.5759735845495 166.38372093031649,89.99046317409375 166.52325581398327,91.13117588480236 166.73255813959986,92.13499959860928 166.69767441856675,92.91067933352315 166.59302325581666,93.09319193018018 166.41860465123318,93.1388200626825 160.2093023256166,93.64072907608352 157.94186046510004,93.77761321136495 156.09302325593308,94.00575330274296 154.59302325593308,94.00575330274296 153.37209302326664,94.18826525507029 149.88372093020007,94.41640504411771 148.73255813959986,94.553288837109 148.0348837210331,94.5076609129028 146.4651162790833,94.553288837109 144.8953488372499,94.69017256959341 142.94186046510004,94.69017256959341 141.51162790716626,94.8270562417456 139.87209302326664,94.87268411900732 137.11627906979993,95.23770689530647 131.32558139541652,96.4240279509977 129.82558139541652,96.88030407161568 128.29069767449982,97.10844188003102 127.62790697673336,97.42783452995354 125.8837209304329,97.97536402143305 125.11627906979993,98.43163785923389 124.1046511628665,98.75102914619492 123.30232558154967,98.88791102552204 121.03488372103311,99.11604735691799 117.58139534888323,99.93733676025295 114.26744186051656,100.89550498130848 113.36046511644963,101.07801287822076 111.44186046521645,101.2148937303864 107.8837209304329,101.03238591400441 106.80232558154967,100.80425099257263 106.59302325581666,100.62174293448334 106.0348837209167,98.88791102552204 105.54651162796654,97.65597193551366 105.37209302338306,97.0628143317299 105.26744186051656,96.24151731477468 104.60465116298292,95.6483570052369 104.5,95.465845912433 104.56976744194981,95.10082340467488 105.79069767449982,94.00575330274296 107.67441860481631,92.59128203062573 107.8139534884831,92.50002559792483 107.8139534884831,92.4087691383902 108.79069767449982,91.76997316963389 109.3837209304329,91.26806112800841 109.94186046521645,90.99429058100213 111.79069767438341,90.35549169810838 112.73255813959986,89.89920597604942 114.86046511633322,89.21477613371098 115.52325581409968,88.80411750319763 116.8139534884831,87.93716971937101 119.01162790704984,86.65955804070109 120.26744186051656,85.4731996250921 122.3255813953001,83.14609877887415 122.95348837214988,82.09661621210398 124.34883720928337,80.22579065221362 125.5,78.94814719734131 126.72093023266643,77.89865042091697 127.76744186063297,77.16856361165992 129.05813953501638,75.84527688779053 129.47674418624956,75.52586200489895 131.32558139541652,74.38509187934687 132.05813953501638,73.79188975543366 133.17441860458348,73.2443175567314 134.3953488372499,72.46858861958026 138.09302325593308,70.91712492270744 138.54651162796654,70.87149352006963 139.45348837203346,70.55207351275021 142.97674418613315,69.0918635748385 145.0348837209167,68.40738779891399 145.97674418624956,68.27049246244133 146.7093023256166,68.08796525304206 147.51162790716626,67.58601487317355 148.62790697684977,67.22095954106771 150.12790697684977,66.53647963464027 151.87209302326664,65.8976303586096 153.23255813971628,65.35004421701888 153.9302325581666,65.12188303939183 155.11627906991635,64.61992785718758 155.77906976744998,64.4830308483215 156.23255813959986,64.25486903253477 157.97674418613315,63.15968997919117 159.02325581398327,62.6577316201583 159.19767441879958,62.70336423191475 159.44186046510004,63.29658757249126 159.19767441879958,63.205322516936576 159.33720930246636,62.9771597609506 160.73255813948344,61.836343461385695 162.51162790693343,60.9236873993068 164.01162790693343,59.9653956425318 166.1744186046999,58.9614677678037 167.98837209295016,57.86627001513261 169.2441860465333,57.27303628358641 169.83720930246636,56.86233534288476 169.97674418613315,56.86233534288476 170.11627906979993,57.04486916138558 171.68604651163332,55.94966463788296 173.50000000011642,55.12825870604138 177.19767441879958,52.93783224775689 180.16279069776647,51.477539344050456 181.27906976744998,50.70175594108878 185.5,48.78510626961361" stroke="red" stroke-linecap="round" stroke-linejoin="round" stroke-width="0.5"><title>2024-11-04 5.6km</title><desc>12821427182</desc></polyline><polyline fill="none" points="83.58823529421352,220.34652931513847 76.16628959286027,221.82481116053532 76.1052036199253,221.86476461225539 76.2273755655624,222.3841589486401 76.1052036199253,222.5839257365442 75.98303167428821,222.62387907644734 75.37217194575351,222.7836923772702 75.06674208142795,222.90355229133274 73.4174208145123,223.06336542751524 71.76809954748023,223.46289785663248 70.14932126703206,223.70261703181313 66.88122171955183,224.3818202118273 66.60633484169375,224.50167942023836 66.1787330317311,224.98111572419293 66.14819004526362,225.34069239653763 66.4230769231217,226.53927786441636 66.72850678733084,228.41705112412455 66.88122171955183,229.09624250876368 67.18665158376098,230.77423746796558 67.58371040725615,232.57207770014065 67.91968325804919,235.00913100628532 68.28619909507688,237.00669936780469 68.56108597281855,239.16405668921652 68.86651583702769,240.96184136124793 69.01923076924868,241.68095189653104 69.01923076924868,242.0804569265165 68.92760180996265,242.320159662253 68.80542986432556,242.36011009765207 64.9570135747781,242.63976298068883 63.918552036280744,242.75961412818287 56.34389140282292,243.23901818876038 55.12217194575351,243.47871990161366 50.63235294120386,243.6784711672808 49.135746606392786,243.63852092597517 47.57805429864675,243.83827207397553 46.570135746733285,243.7983218561276 44.06561085989233,244.1179234344745 42.84389140282292,244.15787360540708 39.27036199113354,244.83702561008977 38.65950226248242,245.07672591196024 37.071266968385316,245.3963259853772 36.03280543000437,245.71592568256892 35.20814479643013,245.79582554791705 34.75,245.99557510888553 34.230769230867736,246.1154247748491 34.04751131229568,246.3551239479857 33.77262443455402,246.4350236253813 32.94796380086336,246.8345216596208 31.848416289663874,247.07422019797377 31.481900452519767,247.23401910599205 30.351809954852797,247.43376760857063 28.091628959286027,247.67346561790328 26.778280543047003,248.112911418546 22.563348416239023,249.23149751976598 20.63914027158171,249.35134575722623 18.012443439103663,249.2714469381026 17.157239819061942,249.1915480956086 16.576923076994717,249.03175033963635 16.485294117592275,248.91190196110983 16.3631221720716,248.47245745369582 15.324660633690655,245.67597574094543 15.202488687820733,245.03677587627317 15.049773755832575,244.83702561008977 14.5,244.43752463665442 14.561085972818546,244.23777392934426 15.782805429887958,242.99931626420585 16.699095022748224,242.40006052705576 17.52375565620605,241.76085294954828 17.76809954759665,241.5211497200071 18.012443439103663,241.40129802576848 18.470588235533796,241.04174262582092 18.95927601819858,240.72213742611348 19.570135746733285,240.4025318500935 19.90610859740991,240.32263039730606 20.822398190153763,239.92312278065947 21.79977375571616,239.6434670991439 22.166289592860267,239.4437128645077 23.021493212669156,239.16405668921652 23.44909502263181,238.88440022588475 24.457013574778102,238.52484149235534 25.55656108597759,237.84567369669094 26.32013574661687,237.52606473432388 27.17533936665859,236.96674814462312 27.450226244400255,236.64713814744027 28.549773755832575,235.72825730970362 29.00791855226271,235.20888850386837 29.527149321278557,234.52971241238993 29.985294117592275,233.81058293403476 30.26018099556677,233.61082440745668 30.565610859775916,233.29121045937063 31.42081447970122,232.2125106063031 32.123303167521954,231.13380646696896 33.55882352939807,229.5357183815795 34.13914027158171,229.1361948902486 34.38348416297231,228.77662324541598 34.90271493222099,228.53690855085733 36.154977375641465,227.33833190298174 38.598416289663874,225.70026859256905 39.45361990958918,225.22083355870564 40.40045248880051,224.50167942023836 41.04185520356987,224.26196095062187 41.744343891507015,224.14210163641837 42.78280543000437,223.70261703181313 42.96606334857643,223.54280427185586 46.53959276014939,222.22434541245457 47.089366515981965,222.10448519865167 47.97511312214192,221.7049507702177 48.95248868782073,221.42527632048586 49.380090497783385,221.22550867998507 50.05203619913664,221.02574089248083 50.35746606334578,220.9857873172441 52.00678733037785,220.46639030528604 52.61764705879614,220.06685346583254 54.205882353009656,219.50750090289512 55.274886877974495,219.02805493125925 55.64140271500219,218.78833162799128 56.099547511315905,218.62851597493864 57.26018099556677,218.34883835556684 59.70361990958918,217.2301249964221 60.131221719435416,217.19017086271197 61.169683257932775,216.75067500263685 61.81108597293496,216.3111784310895 62.238687782897614,216.11140702688135 62.48303167428821,216.11140702688135 63.46040723985061,215.55204631315428 63.70475113124121,215.19245667418 64.74321266973857,214.59313955064863 65.14027149311733,214.47327596723335 65.78167420811951,214.15363948591403 68.22511312214192,212.71527066177805 68.7443438913906,212.43558694981039 69.23303167428821,212.3157224136521 69.96606334846001,211.87621866131667 71.09615384612698,211.3967592107947 71.67647058831062,210.95725397064234 72.50113122176845,210.5177480187849 73.11199095030315,209.99833097631927 73.63122171943542,209.71864446488325 74.11990950221661,209.59877872897778 74.7613122172188,209.15927057745284 76.04411764699034,208.5998955371615 76.34954751143232,208.36016302433563 77.20475113124121,207.96060836542165 77.54072398191784,207.72087528792326 78.48755656101275,207.24140849747346 79.55656108597759,206.7619408601604 80.13687782804482,206.44229529809672 80.62556561082602,206.28247237580945 81.08371040713973,205.8429588546278 81.66402714943979,205.48335635339026 82.30542986420915,205.28357698008767 83.00791855202988,204.9239737378084 83.52714932127856,204.5244140207651 84.44343891413882,204.124853715708 85.29864253394771,203.64538057311438 86.12330316740554,203.32573134094127 87.55882352939807,202.40673770129797 88.10859728511423,202.127043367218 90.27714932116214,201.60761026816908 92.04864253394771,200.84843702748185 92.87330316740554,200.64865424277377 92.96493212669156,200.68861081145587 93.11764705879614,201.04821966507006 93.20927601808216,201.5676538347907 93.36199095018674,201.76743594303844 93.30090497736819,201.76743594303844 93.72850678733084,202.52660661344999 93.9117647059029,202.6864317470463 94.27828054293059,202.6864317470463 94.4004524886841,202.80630053571076 95.31674208142795,204.88401779250125 95.5,205.56326806140714" stroke="red" stroke-linecap="round" stroke-linejoin="round" stroke-width="0.5"><title>2024-10-27 5.9km</title><desc>12818113319</desc></polyline></svg>