<?xml version="1.0" encoding="utf-8" ?>
<svg baseProfile="full" height="300mm" version="1.1" viewBox="0,0,200,300" width="200mm" xmlns="http://www.w3.org/2000/svg" xmlns:ev="http://www.w3.org/2001/xml-events" xmlns:xlink="http://www.w3.org/1999/xlink"><defs /><rect fill="#222222" height="300" width="200" x="0" y="0" /><text fill="#FFFFFF" style="font-size:12px; font-family:Arial; font-weight:bold;" x="10" y="20">跑一跑</text><text fill="#FFFFFF" style="font-size:4px; font-family:Arial" x="10" y="280">ATHLETE</text><text fill="#FFFFFF" style="font-size:9px; font-family:Arial" x="10" y="290">大峰</text><text fill="#FFFFFF" style="font-size:4px; font-family:Arial" x="65" y="280">SPECIAL TRACKS</text><rect fill="yellow" height="2.6" width="2.6" x="65" y="283" /><text fill="#FFFFFF" style="font-size:3px; font-family:Arial" x="70" y="285.5">Over 3.0 km</text><rect fill="red" height="2.6" width="2.6" x="65" y="287" /><text fill="#FFFFFF" style="font-size:3px; font-family:Arial" x="70" y="289.5">Over 5.0 km</text><text fill="#FFFFFF" style="font-size:4px; font-family:Arial" x="120" y="280">STATISTICS</text><text fill="#FFFFFF" style="font-size:3px; font-family:Arial" x="120" y="285">Number: 2</text><text fill="#FFFFFF" style="font-size:3px; font-family:Arial" x="120" y="290">Weekly: 1.0</text><text fill="#FFFFFF" style="font-size:3px; font-family:Arial" x="141" y="285">Total: 11.4 km</text><text fill="#FFFFFF" style="font-size:3px; font-family:Arial" x="141" y="290">Avg: 5.7 km</text><text fill="#FFFFFF" style="font-size:3px; font-family:Arial" x="167" y="285">Min: 5.6 km</text><text fill="#FFFFFF" style="font-size:3px; font-family:Arial" x="167" y="290">Max: 5.9 km</text><polyline fill="none" points="153.30232558143325,80.66226881070179 151.48837209306657,81.0273232832842 149.72093023266643,81.27069275241229 148.46511627919972,81.57490438755485 146.7441860465333,81.69658897886984 141.44186046533287,82.60922227200354 140.04651162796654,82.91343292206875 138.88372093020007,83.03511711928877 137.53488372080028,83.46101152777555 136.46511627919972,83.52185355045367 134.97674418636598,83.88690549769672 133.02325581386685,84.13027328345925 129.81395348836668,84.86037578081596 125.06976744206622,85.7121603982232 124.6046511628665,85.83384377154289 124.8837209304329,86.62478482609731 124.97674418613315,87.23319999221712 124.6046511628665,87.71993148021284 124.51162790716626,88.14582106212038 124.51162790716626,88.38918634055881 124.79069767449982,89.3018048586382 125.39534883736633,92.03964832419297 125.95348837226629,96.17679960394162 126.37209302326664,97.75864062210894 126.93023255816661,100.496428080427 126.97674418613315,101.16566225714632 127.11627906979993,101.77405602307408 127.44186046510004,103.84258812986081 127.72093023266643,105.24188339200919 127.81395348836668,106.27614206346334 128.0930232561659,108.10129811274237 128.51162790716626,109.9872842321056 128.69767441879958,111.50823451307951 128.97674418613315,112.84666613145964 128.9302325581666,113.88090577803086 128.79069767449982,114.12425590690691 128.55813953489996,114.1850934169197 120.2790697675664,114.85430543476832 117.25581395346671,115.03681761515327 114.79069767449982,115.34100440365728 112.79069767449982,115.34100440365728 111.16279069776647,115.58435367341735 106.51162790693343,115.88854005880421 104.97674418613315,116.07105178281199 104.04651162796654,116.01021455053706 101.95348837203346,116.07105178281199 99.86046511633322,116.25356342611485 97.25581395346671,116.25356342611485 95.34883720963262,116.43607498900383 93.16279069776647,116.49691215867642 89.48837209306657,116.98360919376137 81.76744186063297,118.56537060133996 79.76744186063297,119.17373876215424 77.72093023266643,119.47792250671773 76.83720930246636,119.90377937327139 74.51162790716626,120.63381869526347 73.48837209306657,121.24218381234095 72.13953488389961,121.66803886159323 71.06976744206622,121.8505480340391 68.04651162796654,122.15472980923369 63.441860465100035,123.24978234700393 59.023255814099684,124.52733997505857 57.81395348859951,124.77068383761798 55.255813953699544,124.95319164052489 50.51162790716626,124.70984788532951 49.06976744206622,124.40566799009684 48.790697674499825,124.16232391266385 48.04651162796654,121.8505480340391 47.39534883736633,120.20796258069458 47.16279069776647,119.41708577563986 47.023255814099684,118.32202308636624 46.139534883899614,117.5311426736589 46.0,117.28779454992036 46.093023255933076,116.80109787289985 47.72093023266643,115.34100440365728 50.23255813983269,113.45504270750098 50.41860465123318,113.33336746389978 50.41860465123318,113.21169218452997 51.72093023266643,112.35996422616881 52.51162790716626,111.69074817065848 53.255813953699544,111.32572077467921 55.7209302324336,110.47398893078207 56.976744186133146,109.86560796806589 59.81395348859951,108.95303484494798 60.69767441879958,108.40549000428291 62.41860465123318,107.24955962583772 65.34883720939979,105.54607738758205 67.02325581409968,103.96426616678946 69.76744186040014,100.86146503849886 70.6046511628665,99.46215494949138 72.46511627919972,96.96772086963756 74.0,95.26419626313145 75.62790697696619,93.86486722787959 77.02325581409968,92.8914181488799 78.74418604676612,91.12703585036797 79.30232558166608,90.70114933984587 81.76744186063297,89.18012250578613 82.74418604676612,88.38918634055881 84.23255813959986,87.65909007564187 85.86046511633322,86.62478482609731 90.79069767449982,84.55616656359052 91.39534883736633,84.49532469341648 92.6046511628665,84.06943135036272 97.30232558166608,82.12248476644163 100.04651162796654,81.20985039856168 101.30232558166608,81.0273232832842 102.2790697675664,80.78395367070334 103.34883720963262,80.11468649754534 104.83720930246636,79.62794605476665 106.83720930246636,78.71530617951066 109.16279069776647,77.8635071447934 110.97674418636598,77.1333922893391 111.90697674429975,76.82917738583637 113.4883720932994,76.15990380957373 114.37209302326664,75.97737446444808 114.97674418613315,75.67315871003666 117.30232558143325,74.2129199722549 118.69767441879958,73.54364216019167 118.93023255839944,73.6044856425433 119.25581395346671,74.39545009666472 118.93023255839944,74.27376335594454 119.11627907003276,73.96954634791473 120.97674418613315,72.44845794851426 123.34883720939979,71.23158319908543 125.34883720939979,69.95386085673817 128.23255813959986,68.6152903570619 130.6511627906002,67.15502668687259 132.3255813953001,66.36404837810551 133.11627907003276,65.81644712385605 133.30232558166608,65.81644712385605 133.48837209306657,66.0598255485238 135.58139534899965,64.59955285050091 138.00000000023283,63.50434494140791 142.93023255839944,60.583776330342516 146.8837209304329,58.63671912541031 148.37209302326664,57.60234125479474 154.0,55.04680835950421" stroke="red" stroke-linecap="round" stroke-linejoin="round" stroke-width="0.5"><title>2024-11-04 5.6km</title><desc>12821427182</desc></polyline><polyline fill="none" points="138.11764705879614,203.79537242019433 128.2217194570694,205.76641488072346 128.14027149323374,205.81968614971265 128.30316742067225,206.51221193152014 128.14027149323374,206.77856764872558 127.9773755655624,206.83183876861585 127.16289592767134,207.044923169713 126.75565610849299,207.20473638843396 124.55656108586118,207.41782057003002 122.35746606322937,207.95053047550027 120.19909502263181,208.2701560424175 115.84162895940244,209.17576028243639 115.47511312225834,209.33557256031781 114.90497737540863,209.97482096560998 114.86425339360721,210.45425652872655 115.23076923075132,212.0523704859079 115.63800904969685,214.5560681655188 115.84162895940244,215.46165667838068 116.24886877834797,217.69898329061107 116.77828054293059,220.09610360019724 117.22624434391037,223.34550800840952 117.71493212669156,226.00893249042565 118.08144796360284,228.88540891895536 118.4886877827812,231.28245514834998 118.69230769225396,232.24126919536502 118.69230769225396,232.77394256868865 118.57013574661687,233.09354621634702 118.40723981894553,233.1468134635361 113.27601809962653,233.51968397427117 111.89140271488577,233.67948550425353 101.79185520368628,234.31869091835688 100.16289592767134,234.63829320218065 94.1764705881942,234.90462822307018 92.18099547526799,234.85136123461416 90.10407239804044,235.11769609866315 88.76018099556677,235.06442914152285 85.42081447970122,235.49056457931874 83.79185520368628,235.5438314738858 79.02714932151139,236.4493674801197 78.21266968315467,236.76896788264276 76.09502262459137,237.19510131384595 74.71040723985061,237.62123424344463 73.61085972841829,237.72776739724213 73.0,237.9941001452098 72.30769230774604,238.15389969979879 72.06334841623902,238.47349859733367 71.69683257932775,238.5800315005181 70.59728506789543,239.11269554615137 69.13122171955183,239.43229359731777 68.6425339365378,239.6453588079894 67.13574660639279,239.91169014477055 64.12217194563709,240.2312874905474 62.37104072398506,240.817215224728 56.75113122165203,242.30866335969768 54.185520361876115,242.46846100964467 50.68325791857205,242.36192925082287 49.54298642533831,242.25539746083086 48.76923076924868,242.0423337862012 48.64705882337876,241.88253594815615 48.484162896173075,241.2966099382611 47.09954751143232,237.5679676545842 46.93665158376098,236.71570116837393 46.73303167428821,236.4493674801197 46.0,235.91669951553922 46.08144796360284,235.65036523912568 47.71040723985061,233.99908835228416 48.93212669692002,233.2000807027507 50.03167420811951,232.34780393273104 50.3574660634622,232.02819962668582 50.68325791857205,231.8683973677107 51.294117647223175,231.38899016776122 51.945701357442886,230.96284990149434 52.76018099556677,230.53670913347742 53.20814479631372,230.43017386310385 54.42986425338313,229.897497040889 55.73303167405538,229.52462279889733 56.22171945706941,229.258283819363 57.36199095007032,228.88540891895536 57.93212669668719,228.5125336345227 59.276018099626526,228.03312198983622 60.74208144797012,227.12756492893095 61.76018099533394,226.70141964577488 62.90045248880051,225.95566419285024 63.26696832594462,225.52951752993977 64.73303167428821,224.30434307962423 65.34389140293933,223.61185133847175 66.03619909496047,222.7062832165393 66.64705882337876,221.74744391205604 67.01357466052286,221.48109920992283 67.42081447970122,221.05494727918995 68.56108597293496,219.61668080842355 69.49773755669594,218.17840862262528 71.41176470578648,216.04762450876296 72.18552036187612,215.51492652035085 72.5113122172188,215.03549766057404 73.2036199097056,214.71587806780008 74.87330316752195,213.11777587066172 78.13122171955183,210.93369145676843 79.27149321278557,210.29444474494085 80.5339366516564,209.33557256031781 81.38914027134888,209.0159479341819 82.32579185534269,208.8561355152342 83.71040723985061,208.2701560424175 83.95475113135763,208.05707236248418 88.71945701353252,206.2991272166255 89.45248868782073,206.13931359822163 90.6334841628559,205.60660102695692 91.93665158376098,205.23370176064782 92.50678733037785,204.96734490664676 93.40271493210457,204.7009878566314 93.8099547510501,204.64771642297274 96.00904977391474,203.95518707370502 96.82352941157296,203.42247128780582 98.94117647060193,202.67666787054623 100.3665158371441,202.03740657502203 100.8552036199253,201.71777550398838 101.4660633483436,201.50468796657515 103.01357466052286,201.13178447409882 106.27149321278557,199.64016666193493 106.84162895916961,199.58689448362566 108.22624434391037,199.0009000035061 109.08144796383567,198.4149045748054 109.65158371045254,198.14854270251817 109.9773755655624,198.14854270251817 111.28054298646748,197.40272841753904 111.60633484157734,196.92327556561213 112.99095022631809,196.1241860675509 113.52036199066788,195.96436795630143 114.37556561082602,195.5381859812187 117.6334841628559,193.62036088239984 118.32579185510986,193.24744926643325 118.9773755655624,193.08762988485978 119.9547511311248,192.50162488175556 121.46153846150264,191.86234561441233 122.23529411759228,191.27633862753282 123.3348416290246,190.69033069172292 124.14932126691565,189.99777463512146 124.84162895916961,189.6248592865013 125.49321266962215,189.4650383053231 126.34841628954746,188.8790274366038 128.05882352939807,188.13319404955837 128.46606334857643,187.81355069909478 129.60633484157734,187.28081115390523 130.05429864255711,186.96116705058375 131.31674208142795,186.32187799661187 132.74208144797012,185.6825878135569 133.51583710405976,185.25639373078593 134.16742081427947,185.04329650109867 134.7782805429306,184.45727847286616 135.55203619925305,183.97780847118702 136.40723981894553,183.71143597344053 137.34389140247367,183.23196498374455 138.03619909496047,182.69921869435348 139.25791855202988,182.16647162096342 140.39819004526362,181.52717409748584 141.4977375564631,181.10097512125503 143.41176470578648,179.8756502683973 144.1447963800747,179.5027244896337 147.03619909496047,178.81014702422544 149.39819004526362,177.79791603662306 150.4977375564631,177.53153899035533 150.61990950233303,177.5848144152842 150.82352941157296,178.0642928867892 150.94570135744289,178.75687177974032 151.14932126668282,179.02324792405125 151.06787330307998,179.02324792405125 151.63800904969685,180.03547548459028 151.88235294120386,180.2485756627284 152.37104072375223,180.2485756627284 152.5339366516564,180.40840071428102 153.75565610849299,183.17869038999197 154.0,184.08435741523863" stroke="red" stroke-linecap="round" stroke-linejoin="round" stroke-width="0.5"><title>2024-10-27 5.9km</title><desc>12818113319</desc></polyline></svg>
