<?xml version="1.0" encoding="utf-8" ?>
<svg baseProfile="full" height="300mm" version="1.1" viewBox="0,0,200,300" width="200mm" xmlns="http://www.w3.org/2000/svg" xmlns:ev="http://www.w3.org/2001/xml-events" xmlns:xlink="http://www.w3.org/1999/xlink"><defs /><rect fill="#222222" height="300" width="200" x="0" y="0" /><text fill="#FFFFFF" style="font-size:12px; font-family:Arial; font-weight:bold;" x="10" y="20">3km热身跑</text><text fill="#FFFFFF" style="font-size:4px; font-family:Arial" x="10" y="280">ATHLETE</text><text fill="#FFFFFF" style="font-size:9px; font-family:Arial" x="10" y="290">于峰</text><text fill="#FFFFFF" style="font-size:4px; font-family:Arial" x="65" y="280">SPECIAL TRACKS</text><rect fill="yellow" height="2.6" width="2.6" x="65" y="283" /><text fill="#FFFFFF" style="font-size:3px; font-family:Arial" x="70" y="285.5">Over 3.0 km</text><rect fill="red" height="2.6" width="2.6" x="65" y="287" /><text fill="#FFFFFF" style="font-size:3px; font-family:Arial" x="70" y="289.5">Over 5.0 km</text><text fill="#FFFFFF" style="font-size:4px; font-family:Arial" x="120" y="280">STATISTICS</text><text fill="#FFFFFF" style="font-size:3px; font-family:Arial" x="120" y="285">Number: 4</text><text fill="#FFFFFF" style="font-size:3px; font-family:Arial" x="120" y="290">Weekly: 2.0</text><text fill="#FFFFFF" style="font-size:3px; font-family:Arial" x="141" y="285">Total: 22.8 km</text><text fill="#FFFFFF" style="font-size:3px; font-family:Arial" x="141" y="290">Avg: 5.7 km</text><text fill="#FFFFFF" style="font-size:3px; font-family:Arial" x="167" y="285">Min: 5.0 km</text><text fill="#FFFFFF" style="font-size:3px; font-family:Arial" x="167" y="290">Max: 6.3 km</text><polyline fill="none" points="14.5,78.53013321731123 18.719501335639507,78.26031826765393 20.919412288581952,78.08044151760987 22.037399822147563,77.9455338937696 23.29964381107129,77.63074923338718 25.535618877969682,77.31596428662306 30.007569011533633,76.10179109405726 31.125556544866413,75.96688269835431 31.955031166551635,75.69706574940938 35.70569902053103,75.15743121999549 38.41050756908953,74.03318991293781 39.38423864659853,73.76337145554135 39.88913624221459,73.67343192303088 41.187444345559925,73.7184016922547 42.05298308120109,73.85331096471054 42.77426536078565,74.07815963533358 45.515138023067266,75.29233993109665 47.39047195017338,75.69706574940938 48.183882457669824,75.7870047558099 51.10507569019683,75.6520962373761 53.19679430103861,75.24737036661827 60.12110418523662,74.75270477033337 61.49154051649384,74.70773513562744 61.6718610865064,74.75270477033337 61.888245770242065,74.93258325083298 62.46527159400284,74.84264402228291 63.078361531486735,74.88761363952653 68.92074799654074,74.52785653818864 69.71415850403719,74.52785653818864 72.27471059677191,74.25803846673807 73.5369545861613,74.07815963533358 75.5926090828143,73.53852258028928 77.28762243990786,72.95391482056584 79.52359750680625,72.50421587159508 82.40872662514448,71.69475629000226 86.84461264475249,70.57050372863887 89.91006233310327,69.89595043778536 90.34283170080744,69.89595043778536 90.73953695455566,70.21074213719112 91.13624220853671,70.79535453321296 95.17542297416367,77.36093358221115 95.46393588604406,77.85559544857824 95.5,78.17037990438985 95.39180765813217,78.30528744042385 95.13935886020772,78.48516407367424 94.05743544083089,78.88988615604467 91.67720391810872,79.60939091115142 90.01825467520393,80.01411167837796 89.91006233310327,80.10404956221464 89.87399821914732,79.96914272755384 89.76580587704666,79.83423584030243 89.15271593956277,79.60939091115142 88.0707925199531,79.7442978862382 87.34951024036855,79.96914272755384" stroke="red" stroke-linecap="round" stroke-linejoin="round" stroke-width="0.5"><title>2024-11-09 6.3km</title><desc>12859659343</desc></polyline><polyline fill="none" points="185.33858110802248,61.29694881354226 183.98266241524834,61.508103697357 183.4338381824782,61.465872733067954 182.94958150642924,61.7192584258446 182.8850139498245,61.803720273746876 182.82044639310334,61.972643894871 182.94958150642924,62.35272167879157 183.53068951773457,63.577413335384335 183.78895974485204,64.37979468997219 184.37006775615737,67.29368705442175 184.43463531299494,69.19403569764108 184.62833798327483,70.20754982790095 184.59605420473963,71.68558485049289 184.78975687513594,73.45921682807966 184.98345954553224,74.30379963081214 184.98345954553224,75.19060889814864 185.0803108807886,75.52844027915853 185.43543244316243,75.86627126228996 185.5,76.45747452578507 185.4677162215812,76.75307570083532 185.1125946593238,77.38650576461805 185.0803108807886,77.5976488084998 185.43543244316243,79.5823858269141 185.4677162215812,80.08912499342114 185.40314866474364,80.25803785011522 185.24172977288254,80.30026604866725 183.75667596654966,80.68031955658807 183.11100039852317,81.01814447433571 181.6582303706091,82.70726309771999 180.88341968914028,83.67850180403912 180.4314467915101,84.1007784770045 179.97947389411274,84.31191658045282 178.91410920675844,84.60750966431806 176.46054204867687,84.90310244378634 175.3306098046014,84.90310244378634 173.7487046631286,85.07201246666955 171.9085292944219,85.07201246666955 169.81008369859774,85.28314985558973 166.74312475090846,85.49428708909545 165.09665205248166,85.53651451709447 163.6115982462652,85.70542416724493 162.09426066162996,85.7898789550236 161.48086887202226,85.8743337179767 160.31865284964442,85.8743337179767 156.3154643283924,86.25437984344899 154.47528895980213,86.29660715957289 149.98784376250114,86.63442546565784 148.37365484249312,86.8455617048603 144.66102032677736,87.05669778891024 142.7239936228143,87.098924986989 141.4972100437153,87.2256065440888 140.04444001591764,87.2256065440888 138.49481865286361,87.3945152000233 137.55858907930087,87.3945152000233 134.49163013149519,87.73233221343253 127.87345555995125,89.21027697157115 124.51594260660931,90.26594713845407 122.99860502185766,90.8571207356581 121.96552411315497,91.06825386791024 119.6410920683993,91.40606655672309 118.41430848930031,91.65942581236595 113.7654444000218,93.0106713976129 113.08748505369294,93.0951240354334 111.60243124736007,93.22180294565624 110.47249900340103,93.22180294565624 108.05121562362183,93.13735034505953 107.17955360689666,93.0106713976129 106.6952969309641,92.84176604749518 106.59844559582416,92.71508696948877 106.37245914700907,92.1239171999623 106.11418891977519,91.19493367290124 105.40394579502754,89.50586500979261 105.24252690316644,88.6190999817336 104.91968911897857,88.23905698803719 104.5,87.94346764497459 104.53228377818596,87.73233221343253 105.88820247107651,86.46551636231015 106.6952969309641,85.8743337179767 107.88979673164431,84.77641986135859 109.14886408916209,83.88964021817083 109.89139099232852,83.50959096077713 111.69928258273285,82.96063003365998 113.11976883211173,82.3272122743947 115.12136309279595,81.60933712363476 118.18832204060163,79.66684241677285 119.02770027890801,78.73781856079586 119.54424073325936,78.27330550501938 119.83479473879561,77.89324880894856 120.4804703068221,77.17536256546737 121.38441610184964,75.90850010717986 121.7072538860375,75.61289806215791 122.28836189711001,74.89500611356925 123.06317257857881,73.67036276179715 124.1285372658167,72.48794353168341 125.96871263440698,70.96768307604361 126.775807094411,70.24977950556786 127.97030689520761,69.32072515971959 129.87504982051905,68.18051798755187 130.3915902749868,67.75821788515896 131.6183738540858,66.99807613436133 133.52311677951366,66.06901125994045 134.45934635295998,65.73116874147672 135.23415703466162,65.56224733308773 136.33180550020188,65.09771294734674 138.8822239935398,64.25310304635786 141.20665603817906,63.2395678833127 141.9491829413455,62.81726050877478 142.1751693901606,62.77502973706578 143.17596652032807,62.77502973706578 143.56337186135352,62.6483373848896 144.49960143479984,62.18379828130128 145.85552012757398,61.7192584258446 147.7925468313042,60.95910067629302 148.95476285379846,60.36786547873635 150.14926265447866,59.94555387744913 151.44061379041523,59.2276227287075 153.66819449979812,58.34076412356808 154.7012754083844,57.66506048926385 155.153248306131,57.79175504183513 155.28238341968972,57.749523530568695 155.28238341968972,57.83398654701887 156.08947787957732,57.411671216075774 156.5737345556263,56.94712363416329 156.8965723394649,56.77819705431466" stroke="red" stroke-linecap="round" stroke-linejoin="round" stroke-width="0.5"><title>2024-11-06 5.0km</title><desc>12842454626</desc></polyline><polyline fill="none" points="94.97674418613315,217.99670160803362 93.61627906979993,218.27049246244133 92.29069767449982,218.45301956430194 91.34883720939979,218.68117829065886 90.05813953478355,218.77244173415238 86.08139534888323,219.4569167039881 85.0348837209167,219.6850746915443 84.16279069765005,219.7763378394593 83.15116279060021,220.0957586458244 82.34883720939979,220.14139016284025 81.23255813971628,220.41517912325799 79.76744186040014,220.59770496259443 77.36046511633322,221.1452818356047 73.80232558143325,221.78412029866013 73.45348837214988,221.8753828286426 73.66279069776647,222.46858861958026 73.73255813959986,222.92489999416284 73.45348837214988,223.28994861015235 73.38372093031649,223.6093657966121 73.38372093031649,223.79188975543366 73.59302325593308,224.47635364398593 74.04651162796654,226.52973624315928 74.46511627919972,229.63259970294894 74.77906976744998,230.81898046657443 75.19767441856675,232.8723210603348 75.23255813959986,233.37424669286702 75.33720930234995,233.8305420173274 75.58139534876682,235.38194109738106 75.79069767449982,236.43141254401417 75.86046511633322,237.20710654760478 76.06976744206622,238.5759735845495 76.38372093031649,239.99046317409375 76.52325581398327,241.13117588480236 76.73255813959986,242.13499959860928 76.69767441856675,242.91067933352315 76.59302325581666,243.09319193018018 76.41860465123318,243.1388200626825 70.20930232561659,243.64072907608352 67.94186046510004,243.77761321136495 66.09302325593308,244.00575330274296 64.59302325593308,244.00575330274296 63.37209302326664,244.1882652550703 59.88372093020007,244.4164050441177 58.73255813959986,244.553288837109 58.03488372103311,244.5076609129028 56.465116279083304,244.553288837109 54.89534883724991,244.69017256959341 52.941860465100035,244.69017256959341 51.51162790716626,244.8270562417456 49.87209302326664,244.87268411900732 47.11627906979993,245.23770689530647 41.32558139541652,246.4240279509977 39.82558139541652,246.88030407161568 38.290697674499825,247.10844188003102 37.62790697673336,247.42783452995354 35.8837209304329,247.97536402143305 35.11627906979993,248.4316378592339 34.1046511628665,248.75102914619492 33.30232558154967,248.88791102552204 31.03488372103311,249.116047356918 27.581395348883234,249.93733676025295 24.267441860516556,250.89550498130848 23.36046511644963,251.07801287822076 21.44186046521645,251.2148937303864 17.8837209304329,251.0323859140044 16.802325581549667,250.80425099257263 16.59302325581666,250.62174293448334 16.034883720916696,248.88791102552204 15.546511627966538,247.65597193551366 15.372093023383059,247.0628143317299 15.267441860516556,246.24151731477468 14.604651162982918,245.6483570052369 14.5,245.465845912433 14.569767441949807,245.10082340467488 15.790697674499825,244.00575330274296 17.67441860481631,242.59128203062573 17.813953488483094,242.50002559792483 17.813953488483094,242.4087691383902 18.790697674499825,241.7699731696339 19.3837209304329,241.2680611280084 19.94186046521645,240.99429058100213 21.79069767438341,240.35549169810838 22.73255813959986,239.89920597604942 24.860465116333216,239.21477613371098 25.523255814099684,238.80411750319763 26.813953488483094,237.937169719371 29.011627907049842,236.65955804070109 30.267441860516556,235.4731996250921 32.325581395300105,233.14609877887415 32.95348837214988,232.09661621210398 34.348837209283374,230.22579065221362 35.5,228.9481471973413 36.72093023266643,227.89865042091697 37.76744186063297,227.16856361165992 39.05813953501638,225.84527688779053 39.47674418624956,225.52586200489895 41.32558139541652,224.38509187934687 42.05813953501638,223.79188975543366 43.17441860458348,223.2443175567314 44.39534883724991,222.46858861958026 48.093023255933076,220.91712492270744 48.54651162796654,220.87149352006963 49.45348837203346,220.5520735127502 52.976744186133146,219.0918635748385 55.034883720916696,218.407387798914 55.97674418624956,218.27049246244133 56.70930232561659,218.08796525304206 57.51162790716626,217.58601487317355 58.62790697684977,217.2209595410677 60.12790697684977,216.53647963464027 61.87209302326664,215.8976303586096 63.232558139716275,215.35004421701888 63.93023255816661,215.12188303939183 65.11627906991635,214.61992785718758 65.77906976744998,214.4830308483215 66.23255813959986,214.25486903253477 67.97674418613315,213.15968997919117 69.02325581398327,212.6577316201583 69.19767441879958,212.70336423191475 69.44186046510004,213.29658757249126 69.19767441879958,213.20532251693658 69.33720930246636,212.9771597609506 70.73255813948344,211.8363434613857 72.51162790693343,210.9236873993068 74.01162790693343,209.9653956425318 76.1744186046999,208.9614677678037 77.98837209295016,207.8662700151326 79.24418604653329,207.2730362835864 79.83720930246636,206.86233534288476 79.97674418613315,206.86233534288476 80.11627906979993,207.04486916138558 81.68604651163332,205.94966463788296 83.50000000011642,205.12825870604138 87.19767441879958,202.9378322477569 90.16279069776647,201.47753934405046 91.27906976744998,200.70175594108878 95.5,198.7851062696136" stroke="red" stroke-linecap="round" stroke-linejoin="round" stroke-width="0.5"><title>2024-11-04 5.6km</title><desc>12821427182</desc></polyline><polyline fill="none" points="173.58823529421352,220.34652931513847 166.16628959286027,221.82481116053532 166.1052036199253,221.86476461225539 166.2273755655624,222.3841589486401 166.1052036199253,222.5839257365442 165.9830316742882,222.62387907644734 165.3721719457535,222.7836923772702 165.06674208142795,222.90355229133274 163.4174208145123,223.06336542751524 161.76809954748023,223.46289785663248 160.14932126703206,223.70261703181313 156.88122171955183,224.3818202118273 156.60633484169375,224.50167942023836 156.1787330317311,224.98111572419293 156.14819004526362,225.34069239653763 156.4230769231217,226.53927786441636 156.72850678733084,228.41705112412455 156.88122171955183,229.09624250876368 157.18665158376098,230.77423746796558 157.58371040725615,232.57207770014065 157.9196832580492,235.00913100628532 158.28619909507688,237.00669936780469 158.56108597281855,239.16405668921652 158.8665158370277,240.96184136124793 159.01923076924868,241.68095189653104 159.01923076924868,242.0804569265165 158.92760180996265,242.320159662253 158.80542986432556,242.36011009765207 154.9570135747781,242.63976298068883 153.91855203628074,242.75961412818287 146.34389140282292,243.23901818876038 145.1221719457535,243.47871990161366 140.63235294120386,243.6784711672808 139.1357466063928,243.63852092597517 137.57805429864675,243.83827207397553 136.57013574673329,243.7983218561276 134.06561085989233,244.1179234344745 132.84389140282292,244.15787360540708 129.27036199113354,244.83702561008977 128.65950226248242,245.07672591196024 127.07126696838532,245.3963259853772 126.03280543000437,245.71592568256892 125.20814479643013,245.79582554791705 124.75,245.99557510888553 124.23076923086774,246.1154247748491 124.04751131229568,246.3551239479857 123.77262443455402,246.4350236253813 122.94796380086336,246.8345216596208 121.84841628966387,247.07422019797377 121.48190045251977,247.23401910599205 120.3518099548528,247.43376760857063 118.09162895928603,247.67346561790328 116.778280543047,248.112911418546 112.56334841623902,249.23149751976598 110.63914027158171,249.35134575722623 108.01244343910366,249.2714469381026 107.15723981906194,249.1915480956086 106.57692307699472,249.03175033963635 106.48529411759228,248.91190196110983 106.3631221720716,248.47245745369582 105.32466063369066,245.67597574094543 105.20248868782073,245.03677587627317 105.04977375583258,244.83702561008977 104.5,244.43752463665442 104.56108597281855,244.23777392934426 105.78280542988796,242.99931626420585 106.69909502274822,242.40006052705576 107.52375565620605,241.76085294954828 107.76809954759665,241.5211497200071 108.01244343910366,241.40129802576848 108.4705882355338,241.04174262582092 108.95927601819858,240.72213742611348 109.57013574673329,240.4025318500935 109.90610859740991,240.32263039730606 110.82239819015376,239.92312278065947 111.79977375571616,239.6434670991439 112.16628959286027,239.4437128645077 113.02149321266916,239.16405668921652 113.44909502263181,238.88440022588475 114.4570135747781,238.52484149235534 115.55656108597759,237.84567369669094 116.32013574661687,237.52606473432388 117.17533936665859,236.96674814462312 117.45022624440026,236.64713814744027 118.54977375583258,235.72825730970362 119.00791855226271,235.20888850386837 119.52714932127856,234.52971241238993 119.98529411759228,233.81058293403476 120.26018099556677,233.61082440745668 120.56561085977592,233.29121045937063 121.42081447970122,232.2125106063031 122.12330316752195,231.13380646696896 123.55882352939807,229.5357183815795 124.13914027158171,229.1361948902486 124.38348416297231,228.77662324541598 124.90271493222099,228.53690855085733 126.15497737564147,227.33833190298174 128.59841628966387,225.70026859256905 129.45361990958918,225.22083355870564 130.4004524888005,224.50167942023836 131.04185520356987,224.26196095062187 131.74434389150701,224.14210163641837 132.78280543000437,223.70261703181313 132.96606334857643,223.54280427185586 136.5395927601494,222.22434541245457 137.08936651598196,222.10448519865167 137.97511312214192,221.7049507702177 138.95248868782073,221.42527632048586 139.38009049778339,221.22550867998507 140.05203619913664,221.02574089248083 140.35746606334578,220.9857873172441 142.00678733037785,220.46639030528604 142.61764705879614,220.06685346583254 144.20588235300966,219.50750090289512 145.2748868779745,219.02805493125925 145.6414027150022,218.78833162799128 146.0995475113159,218.62851597493864 147.26018099556677,218.34883835556684 149.70361990958918,217.2301249964221 150.13122171943542,217.19017086271197 151.16968325793277,216.75067500263685 151.81108597293496,216.3111784310895 152.2386877828976,216.11140702688135 152.4830316742882,216.11140702688135 153.4604072398506,215.55204631315428 153.7047511312412,215.19245667418 154.74321266973857,214.59313955064863 155.14027149311733,214.47327596723335 155.7816742081195,214.15363948591403 158.22511312214192,212.71527066177805 158.7443438913906,212.43558694981039 159.2330316742882,212.3157224136521 159.96606334846,211.87621866131667 161.09615384612698,211.3967592107947 161.67647058831062,210.95725397064234 162.50113122176845,210.5177480187849 163.11199095030315,209.99833097631927 163.63122171943542,209.71864446488325 164.11990950221661,209.59877872897778 164.7613122172188,209.15927057745284 166.04411764699034,208.5998955371615 166.34954751143232,208.36016302433563 167.2047511312412,207.96060836542165 167.54072398191784,207.72087528792326 168.48755656101275,207.24140849747346 169.5565610859776,206.7619408601604 170.13687782804482,206.44229529809672 170.62556561082602,206.28247237580945 171.08371040713973,205.8429588546278 171.6640271494398,205.48335635339026 172.30542986420915,205.28357698008767 173.00791855202988,204.9239737378084 173.52714932127856,204.5244140207651 174.44343891413882,204.124853715708 175.2986425339477,203.64538057311438 176.12330316740554,203.32573134094127 177.55882352939807,202.40673770129797 178.10859728511423,202.127043367218 180.27714932116214,201.60761026816908 182.0486425339477,200.84843702748185 182.87330316740554,200.64865424277377 182.96493212669156,200.68861081145587 183.11764705879614,201.04821966507006 183.20927601808216,201.5676538347907 183.36199095018674,201.76743594303844 183.3009049773682,201.76743594303844 183.72850678733084,202.52660661344999 183.9117647059029,202.6864317470463 184.2782805429306,202.6864317470463 184.4004524886841,202.80630053571076 185.31674208142795,204.88401779250125 185.5,205.56326806140714" stroke="red" stroke-linecap="round" stroke-linejoin="round" stroke-width="0.5"><title>2024-10-27 5.9km</title><desc>12818113319</desc></polyline></svg>