<?xml version="1.0" encoding="utf-8" ?>
<svg baseProfile="full" height="300mm" version="1.1" viewBox="0,0,200,300" width="200mm" xmlns="http://www.w3.org/2000/svg" xmlns:ev="http://www.w3.org/2001/xml-events" xmlns:xlink="http://www.w3.org/1999/xlink"><defs /><rect fill="#222222" height="300" width="200" x="0" y="0" /><text fill="#FFFFFF" style="font-size:12px; font-family:Arial; font-weight:bold;" x="10" y="20">3km热身跑</text><text fill="#FFFFFF" style="font-size:4px; font-family:Arial" x="10" y="280">ATHLETE</text><text fill="#FFFFFF" style="font-size:9px; font-family:Arial" x="10" y="290">于峰</text><text fill="#FFFFFF" style="font-size:4px; font-family:Arial" x="65" y="280">SPECIAL TRACKS</text><rect fill="yellow" height="2.6" width="2.6" x="65" y="283" /><text fill="#FFFFFF" style="font-size:3px; font-family:Arial" x="70" y="285.5">Over 3.0 km</text><rect fill="red" height="2.6" width="2.6" x="65" y="287" /><text fill="#FFFFFF" style="font-size:3px; font-family:Arial" x="70" y="289.5">Over 5.0 km</text><text fill="#FFFFFF" style="font-size:4px; font-family:Arial" x="120" y="280">STATISTICS</text><text fill="#FFFFFF" style="font-size:3px; font-family:Arial" x="120" y="285">Number: 5</text><text fill="#FFFFFF" style="font-size:3px; font-family:Arial" x="120" y="290">Weekly: 1.7</text><text fill="#FFFFFF" style="font-size:3px; font-family:Arial" x="141" y="285">Total: 25.8 km</text><text fill="#FFFFFF" style="font-size:3px; font-family:Arial" x="141" y="290">Avg: 5.2 km</text><text fill="#FFFFFF" style="font-size:3px; font-family:Arial" x="167" y="285">Min: 3.0 km</text><text fill="#FFFFFF" style="font-size:3px; font-family:Arial" x="167" y="290">Max: 6.3 km</text><polyline fill="none" points="84.46093954145908,46.275594651466236 79.3351705018431,47.513457808527164 72.78995772870257,48.44185374130029 65.29844913305715,50.092332363536116 59.0686683007516,50.6081061353907 56.702928743790835,51.12387952837162 50.63086388166994,52.052270678803325 46.68796462053433,53.0838149592164 42.27191744884476,53.59958652994828 36.51528452755883,54.837436751346104 34.4649769118987,55.35320703161415 29.73349779844284,56.07528478628956 28.629486005287617,56.79736179712927 28.235196079593152,57.416284357372206 28.55062802042812,59.16989530948922 27.91976413829252,60.09827580174897 27.91976413829252,61.026655064779334 28.471770035102963,62.47079814027529 28.86605996126309,64.22439644584665 29.260349886957556,67.00951414898736 29.575781828258187,68.144188558741 29.575781828258187,69.79462078475626 30.837509591598064,75.77740502526285 30.99522556224838,77.73727151664207 32.256953325588256,81.76013819786021 32.49352728109807,84.13258721167222 33.203249148558825,89.08375928783789 33.59753907425329,91.04358857212355 33.91297101508826,93.93174805649323 35.1746987788938,100.22376858536154 35.568988704588264,103.00874324544566 35.41127273440361,104.04021253396058 35.1746987788938,104.65909337816993 33.91297101508826,104.86538687173743 30.600935636088252,104.96853359579109 21.68998330598697,105.79370684083551 18.614521882496774,105.79370684083551 16.95850419299677,106.0 16.248782325536013,106.0 15.539060458540916,105.79370684083551 17.195078148506582,105.58741362061119 18.299089941661805,105.79370684083551 24.607728759292513,104.86538687173743 34.4649769118987,104.24650620954344 35.33241474907845,104.14335937914439 35.72670467477292,103.73077190690674 35.72670467477292,103.31818419141928 33.99182900041342,97.02619144011987 33.36096511874348,93.62230296659982 33.36096511874348,92.17822407459607 33.755255044903606,91.35303480050061 33.755255044903606,91.04358857212355 32.020379370078444,83.10108862712514 31.31065750308335,78.35617558564991 30.522077650763094,74.23013813467696 30.443219665437937,73.09547357738484 29.812355783767998,70.61983544012764 29.339207872282714,67.3189709885628 28.78720197547227,65.66853293258464 28.629486005287617,64.12124372588005 28.156338093802333,61.336114545934834 27.99862212361768,59.47935561026679 28.314054064452648,58.757281362544745 29.41806585760787,57.7257454325445 30.758651606272906,57.10682314570295 31.86266339989379,56.79736179712927 36.04213661607355,56.07528478628956 38.72330811386928,55.45636104198638 39.82731990655884,54.94059083791217 42.035343492403626,55.043744908994995 44.164509093854576,54.321666091505904 46.45139066549018,54.21851191401947 47.0033965613693,54.21851191401947 47.39768648752943,54.42482025397476 47.791976414155215,54.527974400960375 49.290278133004904,53.90904929017415 51.340585748665035,54.01220351312077 53.62746732030064,53.2901236328762 53.706325305625796,52.67119742895011 53.46975134965032,51.742807098606136 53.07546142395586,51.12387952837162 51.89259164594114,49.57655821170192 51.656017689965665,49.06078368000453 51.18286977848038,47.203992224123795 51.18286977848038,46.275594651466236 50.55200589681044,43.28408299596049 49.76342604449019,41.427276235830504 49.52685208898038,39.57046455598902 48.73827223666012,36.37261068663793 47.6342604435049,34.0" stroke="#ffff00" stroke-linecap="round" stroke-linejoin="round" stroke-width="0.5"><title>2024-11-11 3.0km</title><desc>12880320985</desc></polyline><polyline fill="none" points="114.0,73.13789619319141 117.75066785386298,72.89806068237522 119.70614425651729,72.73817023789161 120.69991095294245,72.61825235001743 121.82190560991876,72.33844376303023 123.80943900265265,72.05863492144272 127.78450578812044,70.97936986139393 128.77827248442918,70.85945128745516 129.51558325916994,70.61961399950087 132.84951024048496,70.13993886223761 135.25378450576682,69.14061325596413 136.11932324140798,68.90077462716727 136.56812110426836,68.82082837604685 137.72217275155708,68.8608015042264 138.49154051649384,68.98072085753665 139.1326803206466,69.1805863425543 141.56901157612447,70.25985771656269 143.23597506678198,70.61961399950087 143.94122885121033,70.69955978295184 146.537845057901,70.5796410999028 148.39715048973449,70.21988477034029 154.55209260911215,69.78018201809027 155.77025823690929,69.74020900946925 155.93054318788927,69.78018201809027 156.12288512918167,69.94007400076953 156.63579697231762,69.86012801981997 157.180765805766,69.90010101292864 162.3739982190309,69.58031692283112 163.0792520036921,69.58031692283112 165.35529830818996,69.34047863711021 166.4772929653991,69.1805863425543 168.30454140692018,68.70090896027978 169.8112199465977,68.18125761830015 171.7987533393316,67.78152521920856 174.36331255559344,67.06200559114222 178.30632235098165,66.0626699810091 181.03116651822347,65.46306705582538 181.41585040069185,65.46306705582538 181.76847729296423,65.74288189972867 182.12110418523662,66.2625373628689 185.7114870881196,72.09860762866447 185.96794300992042,72.53830706540612 186.0,72.81811547058169 185.903829029412,72.9380332803994 185.67943009804003,73.09792362106964 184.71772039181087,73.45767658317345 182.601959038293,74.09723636548733 181.12733748892788,74.45698815857759 181.03116651822347,74.53693294420373 180.9991095281439,74.41701575784828 180.90293855743948,74.29709852472297 180.35796972410753,74.09723636548733 179.39626001776196,74.21715367666911 178.7551202137256,74.41701575784828" stroke="red" stroke-linecap="round" stroke-linejoin="round" stroke-width="0.5"><title>2024-11-09 6.3km</title><desc>12859659343</desc></polyline><polyline fill="none" points="85.85651654051617,137.8195100564917 84.65125548036303,138.0072032865719 84.16341171786189,137.9696646516386 83.73296133917756,138.1948963785544 83.67556795547716,138.26997357668006 83.61817457166035,138.42012790657463 83.73296133917756,138.75797482562484 84.24950179364532,139.8465896314883 84.47907532879617,140.559817502246 84.99561578326393,143.149944048404 85.05300916719716,144.8391428423638 85.22518931853119,145.74004429148044 85.19649262656458,147.05385320045752 85.36867277801502,148.63041495831567 85.54085292946547,149.38115522739827 85.54085292946547,150.16943013173295 85.6269430052489,150.469724692608 85.94260661618318,150.7700188998424 86.0,151.2955329118122 85.9713033081498,151.55828951185686 85.65563969721552,152.1213384574803 85.6269430052489,152.30902116314974 85.94260661618318,154.07323184618144 85.9713033081498,154.52366666082526 85.91390992433298,154.6738114223408 85.77042646484915,154.71134759881534 84.45037863694597,155.0491729392379 83.87644479877781,155.34946175498771 82.58509366284125,156.8509005313099 81.89637305715587,157.71422382583842 81.49461937032174,158.08958086848725 81.09286568372045,158.2772591826506 80.14587485056836,158.54000859052758 77.96492626552936,158.80275772782625 76.96054204867687,158.80275772782625 75.55440414510667,158.95289997040527 73.91869270626921,158.95289997040527 72.05340773216449,159.14057764943573 69.32722200092394,159.3282551903394 67.86369071342051,159.3657906818844 66.54364288563374,159.5159325931454 65.19489836599678,159.591003515583 64.64966121967882,159.666074415989 63.61658031085972,159.666074415989 60.05819051421713,160.00389319419628 58.42247907537967,160.04142858632258 54.43363890016917,160.3417115250486 52.99880430451594,160.52938818212715 49.69868473499082,160.71706470125355 47.97688322036993,160.75459998846054 46.886408927850425,160.86720581699046 45.59505779191386,160.86720581699046 44.21761658031028,161.01734684448456 43.38541251490824,161.01734684448456 40.65922678366769,161.31762863419135 34.77640494226944,162.6313573080697 31.791948983678594,163.56973078974988 30.443204464041628,164.09521843172843 29.524910322856158,164.2828923270572 27.45874850533437,164.58317027267185 26.368274212814867,164.80837849990348 22.235950577887706,166.00948568677995 21.633320047869347,166.08455469817272 20.313272219966166,166.1971581739199 19.30888800311368,166.1971581739199 17.156636109924875,166.12208919564728 16.381825428456068,166.00948568677995 15.951375049888156,165.8593475977832 15.865284974104725,165.746743972908 15.664408130687661,165.22125973331276 15.434834595420398,164.39549659815384 14.803507373435423,162.89410223093 14.66002391395159,162.10586665046867 14.373056994751096,161.76805065604276 14.0,161.50530457333662 14.0286966918502,161.31762863419135 15.23395775211975,160.19157009985065 15.951375049888156,159.666074415989 17.013152650441043,158.69015098790987 18.132323634810746,157.90190241619712 18.792347548762336,157.56408085403382 20.399362295866013,157.07611558548524 21.662016739719547,156.5130775772559 23.441211638157256,155.87496633213595 26.16739736951422,154.14830437049386 26.913511359132826,153.32250538739027 27.37265842955094,152.90960489335703 27.630928656784818,152.5717767190945 28.204862494952977,151.9336556137714 29.0083698683884,150.80755565085565 29.295336787588894,150.5447982774931 29.811877241940238,149.90667210097308 30.50059784774203,148.81810023271828 31.4475886807777,147.76706091707456 33.08330011961516,146.41571828984888 33.80071741738357,145.77758178274962 34.86249501805287,144.95175569754792 36.55559984059073,143.93823821117985 37.01474691112526,143.56286034238292 38.10522120364476,142.88717878612806 39.79832602629904,142.06134334218223 40.63053009158466,141.7610388813191 41.319250697502866,141.6108865183196 42.29493822250515,141.19796706433408 44.56197688321117,140.44720270790276 46.62813870073296,139.5462825629511 47.28816261468455,139.1708982300188 47.4890394579852,139.13335976630333 48.37863690708764,139.13335976630333 48.72299721010495,139.0207443421532 49.55520127539057,138.60782069450943 50.76046233566012,138.1948963785544 52.482263850048184,137.51920060117845 53.5153447589837,136.9936582033406 54.577122359653,136.61827011330752 55.72499003598932,135.98010909222648 57.70506177761126,135.19179033208638 58.62335591868032,134.59116487938445 59.025109605514444,134.7037822594284 59.139896373148076,134.66624313828652 59.139896373148076,134.74132137512788 59.85731367080007,134.36592996984837 60.287764049484394,133.95299878594233 60.57473096845206,133.8028418260801" stroke="red" stroke-linecap="round" stroke-linejoin="round" stroke-width="0.5"><title>2024-11-06 5.0km</title><desc>12842454626</desc></polyline><polyline fill="none" points="185.5348837210331,143.7748458737915 184.32558139541652,144.01821552217007 183.14728682173882,144.18046183494153 182.31007751950528,144.38326959169353 181.16279069765005,144.4643926525896 177.62790697684977,145.07281484798295 176.69767441856675,145.27562194803613 175.922480620211,145.3567447461828 175.02325581398327,145.64067435183097 174.31007751950528,145.68123570029275 173.3178294574609,145.92460366510204 172.01550387591124,146.0868488556298 169.87596899224445,146.5735838538676 166.71317829471081,147.14144026546273 166.40310077532195,147.22256251436193 166.58914728695527,147.74985655071214 166.65116279071663,148.15546666146838 166.40310077532195,148.4799543201225 166.34108527132776,148.76388070808025 166.34108527132776,148.9261242270295 166.52713178296108,149.53453657240607 166.9302325581666,151.35976554945228 167.30232558154967,154.11786640260834 167.58139534888323,155.17242708138656 167.95348837203346,156.99761872028466 167.98449612408876,157.44377483808785 168.07751937990543,157.8493706820591 168.29457364336122,159.22839208654477 168.48062015511096,160.1612555946631 168.54263565898873,160.85076137565193 168.72868217073847,162.06753207516158 169.00775193807203,163.32485615473706 169.13178294582758,164.33882300872938 169.3178294574609,165.23111075430643 169.2868217054056,165.92060385202058 169.19379844958894,166.08283727127127 169.03875969001092,166.1233956112701 163.51937984500546,166.5695369564928 161.5038759689778,166.6912117434258 159.86046511633322,166.89400293576182 158.52713178296108,166.89400293576182 157.44186046510004,167.05623578227824 154.34108527132776,167.25902670586947 153.3178294574609,167.38070118855103 152.69767441868316,167.34014303368167 151.30232558143325,167.38070118855103 149.90697674429975,167.5023756173905 148.1705426357221,167.5023756173905 146.89922480634414,167.62404999264982 145.44186046521645,167.66460810575518 142.99224806204438,167.9890727958409 137.84496124042198,169.0435804008739 136.51162790704984,169.4491591747501 135.14728682173882,169.65194833779242 134.55813953489996,169.93585291551426 133.00775193818845,170.42254579684231 132.32558139541652,170.82812254154123 131.4263565891888,171.11202590772882 130.71317829471081,171.2336986893497 128.69767441868316,171.43648653948912 125.62790697673336,172.16652156464988 122.68217054265551,173.01822665001964 121.87596899236087,173.18045589173562 120.17054263572209,173.30212776034023 117.00775193818845,173.13989859021967 116.04651162808295,172.9371119934076 115.86046511633322,172.77488260844257 115.36434108531103,171.2336986893497 114.93023255816661,170.13864172046306 114.77519379858859,169.61139051706414 114.68217054265551,168.88134872424416 114.09302325593308,168.3540951157629 114.0,168.19186303328024 114.06201550399419,167.86739858193323 115.14728682185523,166.89400293576182 116.82170542643871,165.63669513832428 116.94573643419426,165.55557830925682 116.94573643419426,165.4744614563242 117.81395348836668,164.90664281742647 118.34108527144417,164.4604987804487 118.83720930234995,164.21714718310977 120.48062015499454,163.6493259538547 121.3178294574609,163.24373864536756 123.20930232561659,162.63535656328895 123.79844961245544,162.27032666950254 124.94573643419426,161.49970641720574 126.89922480634414,160.36405159172136 128.01550387602765,159.30951077784994 129.84496124030557,157.24097669232287 130.40310077520553,156.30810329964152 131.643410852761,154.64514724642504 132.66666666674428,153.50946417541127 133.75193798460532,152.57657815192943 134.68217054277193,151.92761209924356 135.82945736451074,150.75135723355925 136.2015503877774,150.46743289323058 137.84496124042198,149.45341500383802 138.4961240311386,148.9261242270295 139.48837209295016,148.43939338374184 140.57364341092762,147.74985655071214 143.86046511633322,146.37077770906035 144.26356589153875,146.33021646225825 145.0697674418334,146.04628756688908 148.20155038766097,144.74832317762775 150.0310077519389,144.1399002656981 150.86821705440525,144.01821552217007 151.51937984500546,143.85596911379253 152.23255813971628,143.40979099835386 153.22480620164424,143.08529736983473 154.55813953501638,142.47687078634044 156.1085271317279,141.9090047632053 157.3178294574609,141.42226152622607 157.93798449612223,141.21945159055758 158.9922480621608,140.7732692063728 159.58139534888323,140.65158297627931 159.98449612408876,140.44877247334807 161.5348837210331,139.47527998150326 162.46511627919972,139.0290947734611 162.62015503889415,139.06965709500946 162.83720930234995,139.5969667311001 162.62015503889415,139.51584223727696 162.7441860466497,139.31303089860012 163.98449612408876,138.29897196564707 165.56589147285558,137.48772213270422 166.89922480622772,136.63590723779635 168.8217054264387,135.74352690469823 170.43410852714442,134.7700177912193 171.55038759694435,134.242698918737 172.07751938002184,133.87763141590403 172.20155038766097,133.87763141590403 172.32558139541652,134.03988369900617 173.72093023255002,133.0663685670006 175.33333333348855,132.3362299609289 178.62015503889415,130.38918422022834 181.25581395358313,129.09114608357777 182.2480620155111,128.40156083652982 186.0,126.69787223965977" stroke="red" stroke-linecap="round" stroke-linejoin="round" stroke-width="0.5"><title>2024-11-04 5.6km</title><desc>12821427182</desc></polyline><polyline fill="none" points="75.4117647059029,225.86358161347744 68.81447963800747,227.17760992048716 68.76018099545036,227.21312409981329 68.86877828044817,227.67480795434676 68.76018099545036,227.85237843249342 68.65158371033613,227.88789251241542 68.10859728499781,228.02994877981837 67.83710407232866,228.1364909256372 66.37104072398506,228.27854704669153 64.90497737540863,228.6336869836814 63.466063348343596,228.84677069495956 60.56108597293496,229.450506854977 60.31674208154436,229.55704837355006 59.93665158364456,229.98321397707332 59.90950226248242,230.3028376858274 60.15384615387302,231.3682469906198 60.42533936642576,233.03737877702224 60.56108597293496,233.64110445226834 60.8325791854877,235.13265552709345 61.18552036199253,236.73073573347938 61.484162895940244,238.89700533893483 61.809954751166515,240.67262166028377 62.0542986424407,242.59027261265146 62.325791855109856,244.18830343223817 62.46153846150264,244.82751279692457 62.46153846150264,245.18262837913062 62.38009049766697,245.39569747757923 62.27149321266916,245.43120897570043 58.85067873308435,245.67978931618563 57.92760180996265,245.78632366951206 51.194570135790855,246.21246061225247 50.10859728499781,246.42552880145377 46.11764705879614,246.60308548205649 44.78733031672891,246.5675741564337 43.40271493210457,246.7451307324518 42.50678733037785,246.7096194276819 40.28054298646748,246.99370971956523 39.194570135790855,247.02922098260024 36.01809954759665,247.63291165341798 35.47511312214192,247.84597858843335 34.06334841635544,248.13006754257367 33.14027149323374,248.41415616229642 32.40723981894553,248.4851782648475 32.0,248.66273343014473 31.53846153849736,248.76926646653737 31.375565610826015,248.9823323982273 31.13122171955183,249.05335433369328 30.398190045147203,249.40846369744395 29.42081447970122,249.62152906488336 29.09502262447495,249.76357253866445 28.09049773751758,249.94112676318036 26.08144796383567,250.15419166036008 24.914027149323374,250.5448101498332 21.167420814395882,251.53910890647967 19.457013574661687,251.6456406731013 17.122171945753507,251.57461950054858 16.361990950186737,251.50359830721573 15.846153846126981,251.36155585748202 15.76470588229131,251.25502396543743 15.656108597409911,250.8644066255074 14.733031674288213,248.378645103061 14.624434389173985,247.81046744559717 14.488687782897614,247.63291165341798 14.0,247.27779967704555 14.054298642440699,247.100243492765 15.140271493117325,245.9993922348658 15.95475113124121,245.46672046852473 16.687782805529423,244.89853595515888 16.90497737552505,244.6854664177954 17.122171945753507,244.57893157847866 17.52941176481545,244.25932677852688 17.963800905039534,243.97523326768714 18.506787330377847,243.69113942232798 18.805429864209145,243.6201159087359 19.61990950233303,243.26499802726903 20.4886877827812,243.01641519926488 20.81447963800747,242.83885587958503 21.574660633457825,242.59027261265146 21.954751131124794,242.3416890896915 22.85067873308435,242.02208132656233 23.828054298646748,241.4183766192873 24.50678733026143,241.13427976384992 25.266968325944617,240.63710946190986 25.5113122172188,240.35301168663136 26.488687782897614,239.53622871976404 26.895927601959556,239.07456755900057 27.357466063345782,238.47085547770257 27.76470588229131,237.83162927471858 28.009049773798324,237.6540661399631 28.28054298646748,237.36996485279815 29.040723981917836,236.41112053894904 29.66515837109182,235.45227241508837 30.94117647060193,234.03174967251834 31.457013574661687,233.6766176802339 31.674208144890144,233.35699844038754 32.135746606392786,233.14391871188127 33.24886877834797,232.0785172471078 35.42081447970122,230.6224609711935 36.180995475151576,230.19629649663693 37.0226244344376,229.55704837355006 37.59276018093806,229.34396528945945 38.21719457022846,229.23742367683735 39.14027149323374,228.84677069495956 39.30316742090508,228.70471490833734 42.479638008982874,227.53275147776003 42.96832579188049,227.42620906549564 43.7556561086094,227.07106735132402 44.624434389173985,226.82246784045128 45.004524886840954,226.64489660444087 45.60180995473638,226.46732523776882 45.87330316740554,226.43181094866304 47.33936651586555,225.97012471582275 47.88235294108745,225.61498085853236 49.294117646990344,225.11777858037385 50.2443438913906,224.69160438336257 50.57013574661687,224.47851700267347 50.9773755655624,224.33645864439313 52.009049773798324,224.08785631608043 54.180995475151576,223.0934444412851 54.561085972818546,223.0579296557553 55.484162895940244,222.66726666901377 56.054298642557114,222.27660304987512 56.4343891403405,222.09902846836485 56.651583710336126,222.09902846836485 57.520361991017126,221.60181894504058 57.73755656101275,221.28218371041294 58.66063348413445,220.74945737836242 59.01357466052286,220.64291197089187 59.58371040713973,220.35879065415065 61.7556561086094,219.0802405882714 62.21719457011204,218.83163284430339 62.651583710336126,218.72508658992592 63.30316742078867,218.3344165878516 64.30769230762962,217.90823040960822 64.8235294118058,217.51755908504128 65.55656108597759,217.12688712781528 66.0995475113159,216.66518309008097 66.56108597281855,216.41657285767724 66.99547511304263,216.31002553687722 67.5656108596595,215.91935162441223 68.70588235289324,215.42212936637225 68.97737556567881,215.20903379941592 69.73755656101275,214.8538741026132 70.03619909496047,214.6407780337322 70.87782805424649,214.21458533109399 71.82805429864675,213.7883918757143 72.34389140259009,213.50426248721487 72.77828054293059,213.36219766740396 73.18552036187612,212.97151898191078 73.70135746605229,212.65187231413438 74.27149321255274,212.47429064897005 74.89592760172673,212.15464332251577 75.35746606334578,211.79947912957869 76.17194570135325,211.44431441398046 76.9321266968036,211.0181160649954 77.6651583709754,210.73398341417487 78.94117647060193,209.91710017895093 79.42986425338313,209.66848299310368 81.35746606322937,209.2067646828218 82.9321266968036,208.53194402443478 83.6651583709754,208.35435932691325 83.74660633481108,208.38987627685128 83.88235294108745,208.7095285911928 83.96380090492312,209.17124785316992 84.09954751119949,209.3488319493772 84.04524886875879,209.3488319493772 84.42533936642576,210.02365032308444 84.5882352940971,210.1657171084953 84.91402714920696,210.1657171084953 85.02262443432119,210.2722671428637 85.83710407232866,212.11912692668557 86.0,212.72290494349727" stroke="red" stroke-linecap="round" stroke-linejoin="round" stroke-width="0.5"><title>2024-10-27 5.9km</title><desc>12818113319</desc></polyline></svg>